<svg width="43" height="18" viewBox="0 0 43 18" fill="none" xmlns="http://www.w3.org/2000/svg">
<path fill-rule="evenodd" clip-rule="evenodd" d="M42.9948 9.29791C42.9948 6.21951 41.5142 3.79443 38.6829 3.79443C35.8515 3.79443 34.1215 6.21951 34.1215 9.27178C34.1215 12.8885 36.1528 14.7125 39.0673 14.7125C40.4908 14.7125 41.5662 14.3885 42.3766 13.9338V11.5296C41.5662 11.9373 40.631 12.1882 39.4517 12.1882C38.2724 12.1882 37.2646 11.7805 37.1347 10.3641H42.974C42.974 10.2073 43 9.58537 43 9.29268L42.9948 9.29791ZM37.0984 8.15854C37.0984 6.79965 37.9244 6.23519 38.6777 6.23519C39.431 6.23519 40.1842 6.79965 40.1842 8.15854H37.1035H37.0984ZM29.5187 3.79443C28.3498 3.79443 27.5965 4.34843 27.1757 4.72997L27.0198 3.98781H24.3859V18L27.3731 17.3624L27.3835 13.9599C27.8147 14.2735 28.4485 14.7178 29.4979 14.7178C31.6331 14.7178 33.5813 12.993 33.5813 9.1777C33.5709 5.69164 31.5967 3.79443 29.5083 3.79443H29.5135H29.5187ZM28.8017 12.0732C28.0952 12.0732 27.6796 11.8223 27.3939 11.5087L27.3835 7.05052C27.6952 6.70035 28.1264 6.45993 28.8069 6.45993C29.8927 6.45993 30.646 7.68293 30.646 9.26132C30.646 10.8397 29.9031 12.0732 28.8069 12.0732H28.8017ZM20.2817 3.08885L23.2793 2.44077V0L20.2817 0.637631V3.08885ZM20.2817 3.99826H23.2793V14.5087H20.2817V3.99826ZM17.066 4.88676L16.8737 3.99826H14.2918V14.5139H17.279V7.39024C17.9855 6.46516 19.1752 6.6324 19.5492 6.76829V4.00348C19.1648 3.85714 17.7725 3.59582 17.066 4.89199V4.88676ZM11.0968 1.38502L8.18231 2.0122L8.17192 11.6341C8.17192 13.4111 9.49668 14.723 11.263 14.723C12.2397 14.723 12.9566 14.5401 13.3515 14.3258V11.885C12.967 12.0418 11.0812 12.5958 11.0812 10.8136V6.55401H13.3515V3.99303H11.0812L11.0916 1.37979L11.0968 1.38502ZM3.02356 7.0453C3.02356 6.57491 3.408 6.39721 4.03661 6.39721C5.07044 6.41812 6.08349 6.68467 6.99783 7.16551V4.34843C6.00556 3.95122 5.02888 3.79443 4.03661 3.79443C1.61049 3.79443 0 5.06969 0 7.19686C0 10.5105 4.54053 9.98258 4.54053 11.4146C4.54053 11.9686 4.06258 12.1463 3.39241 12.1463C2.40015 12.1463 1.13773 11.7387 0.129878 11.1847V14.0436C1.24163 14.5244 2.36378 14.723 3.39241 14.723C5.87568 14.723 7.58487 13.4843 7.58487 11.3362C7.57448 7.7561 3.02356 8.39373 3.02356 7.0453Z" fill="white"/>
</svg>
